<svg width="145" height="40" viewBox="0 0 145 40" fill="none" xmlns="http://www.w3.org/2000/svg">
<path d="M0.5 0.5H144.5V39.5H0.5V0.5Z" fill="white" stroke="#0D6EFD"/>
<path d="M11.8864 26H10.4091L14.6818 14.3636H16.1364L20.4091 26H18.9318L15.4545 16.2045H15.3636L11.8864 26ZM12.4318 21.4545H18.3864V22.7045H12.4318V21.4545ZM23.3807 14.3636V26H22.0398V14.3636H23.3807ZM27.1776 14.3636V26H25.8366V14.3636H27.1776ZM37.679 26.1818C36.8608 26.1818 36.1563 25.9886 35.5653 25.6023C34.9744 25.2159 34.5199 24.6837 34.2017 24.0057C33.8835 23.3277 33.7244 22.553 33.7244 21.6818C33.7244 20.7955 33.8873 20.0133 34.2131 19.3352C34.5426 18.6534 35.0009 18.1212 35.5881 17.7386C36.179 17.3523 36.8684 17.1591 37.6562 17.1591C38.2699 17.1591 38.8229 17.2727 39.3153 17.5C39.8078 17.7273 40.2112 18.0455 40.5256 18.4545C40.84 18.8636 41.035 19.3409 41.1108 19.8864H39.7699C39.6676 19.4886 39.4403 19.1364 39.0881 18.8295C38.7396 18.5189 38.2699 18.3636 37.679 18.3636C37.1563 18.3636 36.6979 18.5 36.304 18.7727C35.9138 19.0417 35.6089 19.4223 35.3892 19.9148C35.1733 20.4034 35.0653 20.9773 35.0653 21.6364C35.0653 22.3106 35.1714 22.8977 35.3835 23.3977C35.5994 23.8977 35.9025 24.286 36.2926 24.5625C36.6866 24.839 37.1487 24.9773 37.679 24.9773C38.0275 24.9773 38.3438 24.9167 38.6278 24.7955C38.9119 24.6742 39.1525 24.5 39.3494 24.2727C39.5464 24.0455 39.6866 23.7727 39.7699 23.4545H41.1108C41.035 23.9697 40.8475 24.4337 40.5483 24.8466C40.2528 25.2557 39.8608 25.5814 39.3722 25.8239C38.8873 26.0625 38.3229 26.1818 37.679 26.1818ZM45.6392 26.2045C45.0862 26.2045 44.5843 26.1004 44.1335 25.892C43.6828 25.6799 43.3248 25.375 43.0597 24.9773C42.7945 24.5758 42.6619 24.0909 42.6619 23.5227C42.6619 23.0227 42.7604 22.6174 42.9574 22.3068C43.1544 21.9924 43.4176 21.7462 43.7472 21.5682C44.0767 21.3902 44.4403 21.2576 44.8381 21.1705C45.2396 21.0795 45.643 21.0076 46.0483 20.9545C46.5786 20.8864 47.0085 20.8352 47.3381 20.8011C47.6714 20.7633 47.9138 20.7008 48.0653 20.6136C48.2206 20.5265 48.2983 20.375 48.2983 20.1591V20.1136C48.2983 19.553 48.1449 19.1174 47.8381 18.8068C47.535 18.4962 47.0748 18.3409 46.4574 18.3409C45.8172 18.3409 45.3153 18.4811 44.9517 18.7614C44.5881 19.0417 44.3324 19.3409 44.1847 19.6591L42.9119 19.2045C43.1392 18.6742 43.4422 18.2614 43.821 17.9659C44.2036 17.6667 44.6203 17.4583 45.071 17.3409C45.5256 17.2197 45.9725 17.1591 46.4119 17.1591C46.6922 17.1591 47.0142 17.1932 47.3778 17.2614C47.7453 17.3258 48.0994 17.4602 48.4403 17.6648C48.785 17.8693 49.071 18.178 49.2983 18.5909C49.5256 19.0038 49.6392 19.5568 49.6392 20.25V26H48.2983V24.8182H48.2301C48.1392 25.0076 47.9877 25.2102 47.7756 25.4261C47.5634 25.642 47.2813 25.8258 46.929 25.9773C46.5767 26.1288 46.1468 26.2045 45.6392 26.2045ZM45.8438 25C46.3741 25 46.821 24.8958 47.1847 24.6875C47.5521 24.4792 47.8286 24.2102 48.0142 23.8807C48.2036 23.5511 48.2983 23.2045 48.2983 22.8409V21.6136C48.2415 21.6818 48.1165 21.7443 47.9233 21.8011C47.7339 21.8542 47.5142 21.9015 47.2642 21.9432C47.018 21.9811 46.7775 22.0152 46.5426 22.0455C46.3116 22.072 46.1241 22.0947 45.9801 22.1136C45.6316 22.1591 45.3059 22.233 45.0028 22.3352C44.7036 22.4337 44.4612 22.5833 44.2756 22.7841C44.0938 22.9811 44.0028 23.25 44.0028 23.5909C44.0028 24.0568 44.1752 24.4091 44.5199 24.6477C44.8684 24.8826 45.3097 25 45.8438 25ZM55.8821 17.2727V18.4091H51.3594V17.2727H55.8821ZM52.6776 15.1818H54.0185V23.5C54.0185 23.8788 54.0734 24.1629 54.1832 24.3523C54.2969 24.5379 54.4408 24.6629 54.6151 24.7273C54.7931 24.7879 54.9806 24.8182 55.1776 24.8182C55.3253 24.8182 55.4465 24.8106 55.5412 24.7955C55.6359 24.7765 55.7116 24.7614 55.7685 24.75L56.0412 25.9545C55.9503 25.9886 55.8234 26.0227 55.6605 26.0568C55.4976 26.0947 55.2912 26.1136 55.0412 26.1136C54.6624 26.1136 54.2912 26.0322 53.9276 25.8693C53.5677 25.7064 53.2685 25.4583 53.0298 25.125C52.795 24.7917 52.6776 24.3712 52.6776 23.8636V15.1818ZM61.4645 26.1818C60.6236 26.1818 59.8982 25.9962 59.2884 25.625C58.6823 25.25 58.2145 24.7273 57.8849 24.0568C57.5592 23.3826 57.3963 22.5985 57.3963 21.7045C57.3963 20.8106 57.5592 20.0227 57.8849 19.3409C58.2145 18.6553 58.6728 18.1212 59.2599 17.7386C59.8509 17.3523 60.5402 17.1591 61.3281 17.1591C61.7827 17.1591 62.2315 17.2348 62.6747 17.3864C63.1179 17.5379 63.5213 17.7841 63.8849 18.125C64.2486 18.4621 64.5384 18.9091 64.7543 19.4659C64.9702 20.0227 65.0781 20.7083 65.0781 21.5227V22.0909H58.3509V20.9318H63.7145C63.7145 20.4394 63.616 20 63.419 19.6136C63.2259 19.2273 62.9493 18.9223 62.5895 18.6989C62.2334 18.4754 61.813 18.3636 61.3281 18.3636C60.794 18.3636 60.3319 18.4962 59.9418 18.7614C59.5554 19.0227 59.258 19.3636 59.0497 19.7841C58.8414 20.2045 58.7372 20.6553 58.7372 21.1364V21.9091C58.7372 22.5682 58.8509 23.1269 59.0781 23.5852C59.3092 24.0398 59.6293 24.3864 60.0384 24.625C60.4474 24.8598 60.9228 24.9773 61.4645 24.9773C61.8168 24.9773 62.1349 24.928 62.419 24.8295C62.7069 24.7273 62.955 24.5758 63.1634 24.375C63.3717 24.1705 63.5327 23.9167 63.6463 23.6136L64.9418 23.9773C64.8054 24.4167 64.5762 24.803 64.2543 25.1364C63.9323 25.4659 63.5346 25.7235 63.0611 25.9091C62.5876 26.0909 62.0554 26.1818 61.4645 26.1818ZM70.6406 29.4545C69.9929 29.4545 69.4361 29.3712 68.9702 29.2045C68.5043 29.0417 68.116 28.8258 67.8054 28.5568C67.4986 28.2917 67.2543 28.0076 67.0724 27.7045L68.1406 26.9545C68.2618 27.1136 68.4152 27.2955 68.6009 27.5C68.7865 27.7083 69.0402 27.8883 69.3622 28.0398C69.688 28.1951 70.1141 28.2727 70.6406 28.2727C71.3452 28.2727 71.9266 28.1023 72.3849 27.7614C72.8433 27.4205 73.0724 26.8864 73.0724 26.1591V24.3864H72.9588C72.8603 24.5455 72.7202 24.7424 72.5384 24.9773C72.3603 25.2083 72.1027 25.4148 71.7656 25.5966C71.4323 25.7746 70.9815 25.8636 70.4134 25.8636C69.7088 25.8636 69.0762 25.697 68.5156 25.3636C67.9588 25.0303 67.5175 24.5455 67.1918 23.9091C66.8698 23.2727 66.7088 22.5 66.7088 21.5909C66.7088 20.697 66.866 19.9186 67.1804 19.2557C67.4948 18.589 67.9323 18.0739 68.4929 17.7102C69.0535 17.3428 69.7012 17.1591 70.4361 17.1591C71.0043 17.1591 71.455 17.2538 71.7884 17.4432C72.1255 17.6288 72.383 17.8409 72.5611 18.0795C72.7429 18.3144 72.883 18.5076 72.9815 18.6591H73.1179V17.2727H74.4134V26.25C74.4134 27 74.2429 27.6098 73.902 28.0795C73.5649 28.553 73.1103 28.8996 72.5384 29.1193C71.9702 29.3428 71.3376 29.4545 70.6406 29.4545ZM70.5952 24.6591C71.133 24.6591 71.5876 24.536 71.9588 24.2898C72.33 24.0436 72.6122 23.6894 72.8054 23.2273C72.9986 22.7652 73.0952 22.2121 73.0952 21.5682C73.0952 20.9394 73.0005 20.3845 72.8111 19.9034C72.6217 19.4223 72.3414 19.0455 71.9702 18.7727C71.599 18.5 71.1406 18.3636 70.5952 18.3636C70.027 18.3636 69.5535 18.5076 69.1747 18.7955C68.7997 19.0833 68.5175 19.4697 68.3281 19.9545C68.1425 20.4394 68.0497 20.9773 68.0497 21.5682C68.0497 22.1742 68.1444 22.7102 68.3338 23.1761C68.527 23.6383 68.8111 24.0019 69.1861 24.267C69.5649 24.5284 70.0346 24.6591 70.5952 24.6591ZM80.4134 26.1818C79.6255 26.1818 78.9342 25.9943 78.3395 25.6193C77.7486 25.2443 77.2865 24.7197 76.9531 24.0455C76.6236 23.3712 76.4588 22.5833 76.4588 21.6818C76.4588 20.7727 76.6236 19.9792 76.9531 19.3011C77.2865 18.6231 77.7486 18.0966 78.3395 17.7216C78.9342 17.3466 79.6255 17.1591 80.4134 17.1591C81.2012 17.1591 81.8906 17.3466 82.4815 17.7216C83.0762 18.0966 83.5384 18.6231 83.8679 19.3011C84.2012 19.9792 84.3679 20.7727 84.3679 21.6818C84.3679 22.5833 84.2012 23.3712 83.8679 24.0455C83.5384 24.7197 83.0762 25.2443 82.4815 25.6193C81.8906 25.9943 81.2012 26.1818 80.4134 26.1818ZM80.4134 24.9773C81.0118 24.9773 81.5043 24.8239 81.8906 24.517C82.277 24.2102 82.563 23.8068 82.7486 23.3068C82.9342 22.8068 83.027 22.2652 83.027 21.6818C83.027 21.0985 82.9342 20.5549 82.7486 20.0511C82.563 19.5473 82.277 19.1402 81.8906 18.8295C81.5043 18.5189 81.0118 18.3636 80.4134 18.3636C79.8149 18.3636 79.3224 18.5189 78.9361 18.8295C78.5497 19.1402 78.2637 19.5473 78.0781 20.0511C77.8925 20.5549 77.7997 21.0985 77.7997 21.6818C77.7997 22.2652 77.8925 22.8068 78.0781 23.3068C78.2637 23.8068 78.5497 24.2102 78.9361 24.517C79.3224 24.8239 79.8149 24.9773 80.4134 24.9773ZM86.4148 26V17.2727H87.7102V18.5909H87.8011C87.9602 18.1591 88.2481 17.8087 88.6648 17.5398C89.0814 17.2708 89.5511 17.1364 90.0739 17.1364C90.1723 17.1364 90.2955 17.1383 90.4432 17.142C90.5909 17.1458 90.7027 17.1515 90.7784 17.1591V18.5227C90.733 18.5114 90.6288 18.4943 90.4659 18.4716C90.3068 18.4451 90.1383 18.4318 89.9602 18.4318C89.536 18.4318 89.1572 18.5208 88.8239 18.6989C88.4943 18.8731 88.233 19.1155 88.0398 19.4261C87.8504 19.733 87.7557 20.0833 87.7557 20.4773V26H86.4148ZM93.4972 29.2727C93.2699 29.2727 93.0672 29.2538 92.8892 29.2159C92.7112 29.1818 92.5881 29.1477 92.5199 29.1136L92.8608 27.9318C93.1866 28.0152 93.4744 28.0455 93.7244 28.0227C93.9744 28 94.196 27.8883 94.3892 27.6875C94.5862 27.4905 94.7661 27.1705 94.929 26.7273L95.179 26.0455L91.9517 17.2727H93.4062L95.8153 24.2273H95.9062L98.3153 17.2727H99.7699L96.0653 27.2727C95.8987 27.7235 95.6922 28.0966 95.446 28.392C95.1998 28.6913 94.9138 28.9129 94.5881 29.0568C94.2661 29.2008 93.9025 29.2727 93.4972 29.2727Z" fill="#1C1C1C"/>
<path d="M130.59 16.2949L126 20.8749L121.41 16.2949L120 17.7049L126 23.7049L132 17.7049L130.59 16.2949Z" fill="#8B96A5"/>
</svg>
